<?xml version="1.0" encoding="iso-8859-1"?>
<!-- Generator: Adobe Illustrator 19.0.0, SVG Export Plug-In . SVG Version: 6.00 Build 0)  -->
<svg version="1.1" id="Layer_1" xmlns="http://www.w3.org/2000/svg" xmlns:xlink="http://www.w3.org/1999/xlink" x="0px" y="0px"
	 viewBox="0 0 24 24" style="enable-background:new 0 0 24 24;" xml:space="preserve" fill="#7E7E7F">
<g>
	<path d="M23.955,16.304c-0.744-1.749-1.977-2.875-2.964-3.546C20.997,12.597,21,12.434,21,12.27c0-0.579-0.039-1.158-0.12-1.745
		l3.097-9.875c0.06-0.191,0-0.4-0.153-0.53c-0.153-0.131-0.369-0.155-0.548-0.066L17,3.191V2.5c0-0.173-0.09-0.334-0.237-0.425
		c-0.148-0.092-0.332-0.1-0.486-0.022L15,2.691V0.5c0-0.202-0.122-0.385-0.309-0.462c-0.188-0.078-0.402-0.035-0.545,0.108L12,2.293
		V0.5c0-0.22-0.144-0.415-0.355-0.479c-0.21-0.064-0.439,0.018-0.561,0.201L9.422,2.715L7.853,1.146
		C7.71,1.003,7.497,0.96,7.308,1.038C7.121,1.115,6.999,1.298,6.999,1.5v1.637L0.72,0.052c-0.18-0.089-0.395-0.061-0.547,0.07
		c-0.152,0.13-0.211,0.339-0.15,0.53l3.105,9.801C3.043,11.051,3,11.661,3,12.271c0,0.163,0.003,0.325,0.009,0.486
		c-0.988,0.669-2.224,1.797-2.969,3.549c-0.08,0.188-0.038,0.405,0.106,0.549l1,1c0.195,0.195,0.512,0.195,0.707,0
		c0.705-0.704,1.542-0.861,2.053-0.883c0.438,1.07,1.028,2.055,1.737,2.899c-0.32,0.634-0.691,1.78-0.644,3.643
		c0.007,0.271,0.229,0.487,0.5,0.487h3c0.146,0,0.284-0.063,0.379-0.174c0.314-0.365,0.558-0.806,0.738-1.206
		c1.546,0.504,3.219,0.504,4.765,0c0.179,0.396,0.423,0.839,0.739,1.206C15.216,23.937,15.354,24,15.5,24h3
		c0.271,0,0.493-0.216,0.5-0.487c0.047-1.84-0.314-2.98-0.647-3.64c0.709-0.843,1.299-1.828,1.74-2.902
		c0.511,0.022,1.346,0.181,2.049,0.883c0.195,0.195,0.512,0.195,0.707,0l1-1C23.993,16.709,24.035,16.492,23.955,16.304z
		 M6.146,6.134c0.195-0.195,0.512-0.195,0.707,0l2.424,2.424C9.115,8.64,9,8.805,9,9c0,0.276,0.224,0.5,0.5,0.5H10
		c0.065,0,0.126-0.014,0.183-0.037l0.671,0.671c0.14,0.14,0.184,0.35,0.113,0.534c-0.072,0.185-0.246,0.31-0.443,0.319
		c-0.25,0.011-0.538,0.02-0.842,0.02c-1.19,0-2.637-0.13-3.08-0.719C5.769,9.183,6.46,7.481,6.542,7.29
		C6.547,7.277,6.553,7.265,6.56,7.252L6.148,6.84C5.951,6.646,5.951,6.329,6.146,6.134z M17.969,12.672
		C17.954,12.716,16.33,17,12,17c-4.33,0-5.954-4.284-5.969-4.328c-0.065-0.178-0.025-0.377,0.105-0.515
		c0.129-0.139,0.326-0.192,0.507-0.137c2.333,0.697,3.887,0.981,5.36,0.981c1.485,0,2.986-0.275,5.354-0.981
		c0.182-0.055,0.378-0.002,0.507,0.137C17.994,12.295,18.035,12.495,17.969,12.672z M17.854,6.841l-0.412,0.412
		c0.007,0.012,0.013,0.025,0.018,0.038c0.082,0.19,0.772,1.893-0.06,2.998c-0.443,0.589-1.89,0.719-3.08,0.719
		c-0.305,0-0.592-0.008-0.842-0.02c-0.198-0.009-0.372-0.134-0.443-0.319c-0.071-0.185-0.027-0.394,0.113-0.534l0.671-0.671
		c0.057,0.022,0.118,0.037,0.183,0.037h0.5c0.276,0,0.5-0.224,0.5-0.5c0-0.195-0.115-0.36-0.278-0.442l2.424-2.424
		c0.195-0.195,0.512-0.195,0.707,0C18.05,6.33,18.049,6.646,17.854,6.841z"/>
</g>
</svg>
