<?xml version="1.0" encoding="iso-8859-1"?>
<!-- Generator: Adobe Illustrator 19.0.0, SVG Export Plug-In . SVG Version: 6.00 Build 0)  -->
<svg version="1.1" id="Layer_1" xmlns="http://www.w3.org/2000/svg" xmlns:xlink="http://www.w3.org/1999/xlink" x="0px" y="0px"
	 viewBox="0 0 24 24" style="enable-background:new 0 0 24 24;" xml:space="preserve" fill="#7E7E7F" outline="#7E7E7F">
<g>
	<circle cx="12.999" cy="9.999" r="1.5"/>
	<path d="M23.464,11.26l-0.021-0.002c0.002-0.026,0.018-0.05,0.016-0.077C23.036,5.191,18.003,0.5,12,0.5
		C5.659,0.5,0.5,5.659,0.5,12c0,0.966,0.133,1.958,0.395,2.947C2.229,19.983,6.795,23.5,12,23.5c6.341,0,11.5-5.159,11.5-11.5
		C23.499,11.75,23.481,11.505,23.464,11.26z M9.521,9.801c0.053-0.923,0.459-1.746,1.082-2.34c0.015-0.014,0.032-0.025,0.047-0.038
		c0.142-0.131,0.293-0.252,0.455-0.358c0.045-0.029,0.095-0.05,0.142-0.077c0.14-0.082,0.281-0.163,0.432-0.225
		c0.093-0.038,0.192-0.06,0.289-0.09c0.115-0.036,0.227-0.08,0.346-0.104C12.536,6.525,12.765,6.5,13,6.5
		c0.225,0,0.443,0.026,0.656,0.066c0.081,0.016,0.158,0.042,0.237,0.064c0.128,0.034,0.255,0.07,0.377,0.117
		c0.088,0.035,0.173,0.077,0.258,0.119c0.106,0.052,0.21,0.106,0.31,0.168c0.081,0.05,0.159,0.104,0.235,0.161
		c0.096,0.071,0.188,0.148,0.277,0.229c0.066,0.06,0.131,0.121,0.193,0.186c0.09,0.095,0.171,0.198,0.25,0.303
		c0.047,0.063,0.098,0.124,0.141,0.191c0.082,0.127,0.152,0.263,0.218,0.4c0.027,0.056,0.059,0.108,0.083,0.165
		c0.083,0.2,0.15,0.408,0.194,0.624c0.048,0.23,0.072,0.469,0.072,0.708c0,1.93-1.57,3.5-3.5,3.5s-3.5-1.57-3.493-3.559
		C9.508,9.927,9.52,9.815,9.521,9.801z M11.999,22.499c-4.668,0-8.772-3.099-10.071-7.567c0.108-0.14,0.22-0.278,0.336-0.414
		c0.072-0.085,0.139-0.172,0.214-0.254c0.185-0.205,0.382-0.402,0.585-0.596c0.043-0.041,0.081-0.084,0.124-0.125
		c0.251-0.233,0.515-0.458,0.791-0.675c0.069-0.054,0.143-0.103,0.214-0.156c0.209-0.158,0.422-0.314,0.644-0.462
		c0.109-0.073,0.224-0.14,0.336-0.21c0.193-0.121,0.386-0.241,0.587-0.354c0.129-0.073,0.263-0.141,0.395-0.21
		c0.194-0.102,0.389-0.202,0.589-0.297c0.142-0.067,0.287-0.131,0.433-0.195c0.201-0.088,0.404-0.173,0.611-0.254
		c0.15-0.059,0.302-0.115,0.454-0.17c0.093-0.033,0.189-0.063,0.283-0.094c0.008,0.079,0.033,0.152,0.045,0.23
		c0.021,0.131,0.045,0.26,0.076,0.387c0.038,0.153,0.086,0.301,0.139,0.448c0.044,0.121,0.089,0.241,0.143,0.357
		c0.066,0.141,0.142,0.275,0.222,0.408c0.065,0.109,0.128,0.216,0.202,0.319c0.091,0.127,0.193,0.243,0.297,0.36
		c0.082,0.093,0.161,0.187,0.25,0.272c0.115,0.11,0.242,0.206,0.368,0.304c0.095,0.074,0.186,0.151,0.287,0.217
		c0.14,0.091,0.291,0.164,0.441,0.24c0.102,0.051,0.198,0.11,0.304,0.154c0.173,0.071,0.357,0.119,0.54,0.168
		c0.095,0.025,0.184,0.063,0.281,0.082c0.285,0.057,0.578,0.089,0.879,0.089c2.481,0,4.5-2.019,4.5-4.5
		c0-0.065-0.002-0.129-0.004-0.194c0.19,0.034,0.381,0.066,0.57,0.106c0.18,0.038,0.362,0.074,0.539,0.118
		c0.339,0.083,0.669,0.181,0.997,0.283c0.139,0.043,0.282,0.08,0.42,0.127c0.458,0.156,0.906,0.329,1.336,0.521
		c0.066,0.029,0.126,0.065,0.191,0.095c0.321,0.149,0.631,0.309,0.933,0.478c0.01,0.155,0.018,0.31,0.018,0.467
		C22.499,17.789,17.789,22.499,11.999,22.499z"/>
</g>
</svg>
